<svg width="932" height="583" viewBox="0 0 932 583" fill="none" xmlns="http://www.w3.org/2000/svg">
<g filter="url(#filter0_bd_5_113)">
<g clip-path="url(#clip0_5_113)">
<path opacity="0.64" d="M1 8H930V545H1V8Z" fill="white"/>
<path d="M930 545L1287 -86L1 187V545H930Z" fill="url(#paint0_linear_5_113)"/>
<g filter="url(#filter1_d_5_113)">
<path d="M177 33C177 30.7909 178.791 29 181 29H544C546.209 29 548 30.7909 548 33V45C548 47.2091 546.209 49 544 49H181C178.791 49 177 47.2091 177 45V33Z" fill="white"/>
</g>
</g>
</g>
<defs>
<filter id="filter0_bd_5_113" x="0" y="-12" width="932" height="595" filterUnits="userSpaceOnUse" color-interpolation-filters="sRGB">
<feFlood flood-opacity="0" result="BackgroundImageFix"/>
<feGaussianBlur in="BackgroundImageFix" stdDeviation="10"/>
<feComposite in2="SourceAlpha" operator="in" result="effect1_backgroundBlur_5_113"/>
<feColorMatrix in="SourceAlpha" type="matrix" values="0 0 0 0 0 0 0 0 0 0 0 0 0 0 0 0 0 0 127 0" result="hardAlpha"/>
<feOffset dy="16"/>
<feGaussianBlur stdDeviation="12"/>
<feColorMatrix type="matrix" values="0 0 0 0 0.0666667 0 0 0 0 0.145098 0 0 0 0 0.243137 0 0 0 0.16 0"/>
<feBlend mode="normal" in2="effect1_backgroundBlur_5_113" result="effect2_dropShadow_5_113"/>
<feBlend mode="normal" in="SourceGraphic" in2="effect2_dropShadow_5_113" result="shape"/>
</filter>
<filter id="filter1_d_5_113" x="169" y="25" width="387" height="36" filterUnits="userSpaceOnUse" color-interpolation-filters="sRGB">
<feFlood flood-opacity="0" result="BackgroundImageFix"/>
<feColorMatrix in="SourceAlpha" type="matrix" values="0 0 0 0 0 0 0 0 0 0 0 0 0 0 0 0 0 0 127 0" result="hardAlpha"/>
<feOffset dy="4"/>
<feGaussianBlur stdDeviation="4"/>
<feColorMatrix type="matrix" values="0 0 0 0 0 0 0 0 0 0 0 0 0 0 0 0 0 0 0.08 0"/>
<feBlend mode="normal" in2="BackgroundImageFix" result="effect1_dropShadow_5_113"/>
<feBlend mode="normal" in="SourceGraphic" in2="effect1_dropShadow_5_113" result="shape"/>
</filter>
<linearGradient id="paint0_linear_5_113" x1="189.5" y1="545" x2="742" y2="67" gradientUnits="userSpaceOnUse">
<stop stop-color="#E7E8ED"/>
<stop offset="1" stop-color="white"/>
</linearGradient>
<clipPath id="clip0_5_113">
<rect x="24" y="8" width="884" height="535" rx="12" fill="white"/>
</clipPath>
</defs>
</svg>
